# 3ds Max Wavefront OBJ Exporter v0.97b - (c)2007 guruware
# File Created: 31.03.2019 18:54:48

mtllib model.mtl

#
# object solid
#

v  0.2769183019536017 0.9088045393146438 -0.857310595959905
v  -0.8533780387048264 0.9088045393146438 -0.8543869695790729
v  -0.8533780387048264 0.9750442609406487 -0.8543869695790729
v  0.2769183019536017 0.9750442609406487 -0.857310595959905
v  -0.8518864996480981 0.9088045393146438 0.2872716463321341
v  -0.8518864996480981 0.9750442609406487 0.2872716463321341
v  0.27840984101032973 0.9088045393146438 0.2843480199513022
v  0.27840984101032973 0.9750442609406487 0.2843480199513022
v  0.24339277049445474 0.9088045393146438 0.24942187561473528
v  -0.8169603553115313 0.9088045393146438 0.2522545758162593
v  -0.8169603553115313 0.9750442609406487 0.2522545758162593
v  0.24339277049445474 0.9750442609406487 0.24942187561473528
v  -0.8183609681889515 0.9088045393146438 -0.8194608252425062
v  -0.8183609681889515 0.9750442609406487 -0.8194608252425062
v  0.24199215761703452 0.9088045393146438 -0.8222935254440301
v  0.24199215761703452 0.9750442609406487 -0.8222935254440301
v  -0.8518864996480981 0.9088045393146438 0.28727514349287664
v  -0.913544940701268 -0.29330599719352846 0.350435615085003
v  -0.8672652640137788 -0.29330599719352846 0.3503761633523783
v  -0.7748667800329607 0.9088045393146438 0.28717372583134093
v  -0.8673264643267746 -0.29330599719352846 0.3034565062489891
v  -0.7749664491141254 0.9088045393146438 0.21015400621620306
v  -0.8519879173096342 0.9088045393146438 0.21025367529736805
v  -0.913606141014264 -0.29330599719352846 0.3035177065619852
v  -0.8689211696254102 -0.29330599719352846 -0.9174442749292918
v  -0.9152008463128997 -0.29330599719352846 -0.9173848231966673
v  -0.8533780387048264 0.9088045393146438 -0.8543887181594442
v  -0.7763565705093176 0.9088045393146438 -0.8544901358209802
v  -0.8688599693124145 -0.29330599719352846 -0.8705263664062739
v  -0.776256901428153 0.9088045393146438 -0.7774686676254715
v  -0.8532766210432903 0.9088045393146438 -0.7773689985443067
v  -0.9151396459999037 -0.29330599719352846 -0.8704669146736492
v  0.19989683375809264 0.9088045393146438 -0.8572074297179976
v  0.27691655337323007 0.9088045393146438 -0.8573088473795336
v  0.33857499442640027 -0.29330599719352846 -0.9204693189716598
v  0.2922970663192821 -0.29330599719352846 -0.920408118658664
v  0.1999982514196288 0.9088045393146438 -0.7801877101028603
v  0.29235651805190677 -0.29330599719352846 -0.8734902101356461
v  0.2770179710347662 0.9088045393146438 -0.7802873791840249
v  0.3386361947393961 -0.29330599719352846 -0.8735514104486419
v  0.20138662423444975 0.9088045393146438 0.2844529347735807
v  0.34023090003803147 -0.29330599719352846 0.34735111931001006
v  0.27840809242995834 0.9088045393146438 0.28435151711204476
v  0.29395122335054236 -0.29330599719352846 0.3474123196230061
v  0.20128695515328499 0.9088045393146438 0.20743146657807188
v  0.2938900230375463 -0.29330599719352846 0.3004926625196169
v  0.2783066747684224 0.9088045393146438 0.20733004891653595
v  0.34016969972503563 -0.29330599719352846 0.30043321078699226
v  0.41181078611802047 0.9750442609406487 0.4015011562487707
v  -0.9940600724786564 0.9750442609406487 0.40892737708572846
v  -0.9984227805050773 0.9750442609406487 -0.9881096534750848
v  0.40999051395148545 0.9750442609406487 -0.9955376228924141
v  0.41181078611802047 1.0 0.4015011562487707
v  0.40999051395148545 1.0 -0.9955376228924141
v  -0.9984227805050773 1.0 -0.9881096534750848
v  -0.9940600724786564 1.0 0.40892737708572846
v  -0.9956372919735789 0.9983440943883684 0.40893087424647123
v  -1.0 0.9983440943883684 -0.9881044077339709
v  -1.0 0.9767001665522803 -0.9881044077339709
v  -0.9956372919735789 0.9767019151326515 0.40893087424647123
v  0.4118160318591342 0.9983440943883684 0.4032322508163684
v  -0.994053078157171 0.9983440943883684 0.41065847165332636
v  -0.994053078157171 0.9767001665522803 0.41065847165332636
v  0.4118160318591342 0.9767001665522803 0.4032322508163684
v  0.41156773344640807 0.9983440943883684 -0.9955428686335281
v  0.4133880056129431 0.9983440943883684 0.40149591050765654
v  0.4133880056129431 0.9767001665522803 0.40149591050765654
v  0.41156773344640807 0.9767001665522803 -0.9955428686335281
v  -0.9984280262461913 0.9983440943883684 -0.9898407480426827
v  0.4099852682103715 0.9983440943883684 -0.9972704660403834
v  0.4099852682103715 0.9767001665522803 -0.9972704660403834
v  -0.9984280262461913 0.9767001665522803 -0.9898407480426827
# 72 vertices

vn -0.0026 -0.0000 -1.0000
vn -0.0026 0.0000 -1.0000
vn -1.0000 0.0000 0.0013
vn -1.0000 -0.0000 0.0013
vn 0.0026 -0.0000 1.0000
vn 1.0000 -0.0000 -0.0013
vn 1.0000 0.0000 -0.0013
vn -0.0027 0.0000 -1.0000
vn 0.0027 0.0000 1.0000
vn 0.0000 -1.0000 -0.0000
vn 0.0000 -1.0000 0.0000
vn -0.0000 -1.0000 -0.0000
vn 0.0000 1.0000 0.0000
vn -0.0000 1.0000 -0.0000
vn 0.0000 1.0000 -0.0000
vn -0.0000 1.0000 0.0000
vn 0.0013 0.0524 0.9986
vn 0.9971 -0.0767 -0.0013
vn -0.0013 -0.0773 -0.9970
vn -0.9987 0.0513 0.0013
vn -0.0013 0.0524 -0.9986
vn 0.0013 -0.0773 0.9970
vn -0.9971 -0.0767 0.0013
vn 0.9987 0.0513 -0.0013
vn -1.0000 0.0000 0.0031
vn 0.0053 0.0000 1.0000
vn -0.0053 -0.0000 -1.0000
vn -0.6059 -0.5759 -0.5488
vn -0.6027 -0.5757 0.5526
vn 0.6029 -0.5758 -0.5522
vn 0.6061 -0.5758 0.5488
vn -0.6060 0.5758 -0.5489
vn -0.6027 0.5757 0.5526
vn 0.6030 0.5757 -0.5522
vn 0.6059 0.5758 0.5489
vn -0.0036 -0.7227 -0.6912
vn -0.0036 -0.7228 -0.6911
vn 0.7241 -0.6897 -0.0009
vn 0.7240 -0.6898 -0.0009
vn 0.0037 -0.7227 0.6912
vn 0.0037 -0.7226 0.6912
vn -0.7239 -0.6899 0.0023
vn -0.7239 -0.6898 0.0023
vn -0.7240 0.6898 0.0023
vn -0.7239 0.6899 0.0023
vn 0.0037 0.7227 0.6912
vn 0.7240 0.6898 -0.0009
vn 0.7241 0.6897 -0.0009
vn -0.0036 0.7228 -0.6911
vn -0.0036 0.7226 -0.6912
vn -0.7370 0.0000 0.6759
vn -0.7371 0.0000 0.6758
vn -0.7412 -0.0000 -0.6713
vn -0.7412 0.0000 -0.6713
vn 0.7412 0.0000 0.6713
vn 0.7411 0.0000 0.6713
vn 0.7374 -0.0000 -0.6754
vn 0.7375 -0.0000 -0.6754
vn 0.7375 0.0000 -0.6754
# 59 vertex normals

vt 0.9388 0.6213 0.0000
vt 0.9388 0.9222 0.0000
vt 0.9211 0.9222 0.0000
vt 0.9211 0.6213 0.0000
vt 0.7040 0.0020 0.0000
vt 0.7040 0.3058 0.0000
vt 0.6863 0.3058 0.0000
vt 0.6863 0.0020 0.0000
vt 0.7250 0.0020 0.0000
vt 0.7250 0.3028 0.0000
vt 0.7073 0.3028 0.0000
vt 0.7073 0.0020 0.0000
vt 0.7040 0.3117 0.0000
vt 0.7040 0.6155 0.0000
vt 0.6863 0.6155 0.0000
vt 0.6863 0.3117 0.0000
vt 0.7459 0.3117 0.0000
vt 0.7459 0.5939 0.0000
vt 0.7283 0.5939 0.0000
vt 0.7283 0.3117 0.0000
vt 0.7250 0.3117 0.0000
vt 0.7250 0.5969 0.0000
vt 0.7073 0.5969 0.0000
vt 0.7073 0.3117 0.0000
vt 0.7459 0.0020 0.0000
vt 0.7459 0.2842 0.0000
vt 0.7283 0.2842 0.0000
vt 0.7283 0.0020 0.0000
vt 0.9598 0.6213 0.0000
vt 0.9598 0.9066 0.0000
vt 0.9421 0.9066 0.0000
vt 0.9421 0.6213 0.0000
vt 0.3898 0.6070 0.0000
vt 0.3805 0.6163 0.0000
vt 0.3894 0.3217 0.0000
vt 0.3801 0.3124 0.0000
vt 0.6809 0.3117 0.0000
vt 0.6716 0.3210 0.0000
vt 0.6813 0.6155 0.0000
vt 0.6720 0.6062 0.0000
vt 0.3898 0.0113 0.0000
vt 0.3894 0.2966 0.0000
vt 0.3805 0.0020 0.0000
vt 0.3801 0.3058 0.0000
vt 0.6809 0.3066 0.0000
vt 0.6716 0.2973 0.0000
vt 0.6813 0.0028 0.0000
vt 0.6720 0.0121 0.0000
vt 0.8906 0.6228 0.0000
vt 0.8847 0.9431 0.0000
vt 0.8724 0.9422 0.0000
vt 0.8702 0.6213 0.0000
vt 0.7377 0.6228 0.0000
vt 0.7321 0.9431 0.0000
vt 0.7197 0.9422 0.0000
vt 0.7172 0.6213 0.0000
vt 0.6497 0.6213 0.0000
vt 0.6702 0.6213 0.0000
vt 0.6457 0.9413 0.0000
vt 0.6333 0.9413 0.0000
vt 0.3969 0.6213 0.0000
vt 0.4174 0.6213 0.0000
vt 0.3926 0.9413 0.0000
vt 0.3801 0.9413 0.0000
vt 0.6439 0.5442 0.0000
vt 0.6439 0.5565 0.0000
vt 0.6315 0.5566 0.0000
vt 0.6314 0.5442 0.0000
vt 0.6234 0.5582 0.0000
vt 0.6439 0.5583 0.0000
vt 0.6439 0.5788 0.0000
vt 0.6234 0.5787 0.0000
vt 0.6037 0.9413 0.0000
vt 0.5914 0.9413 0.0000
vt 0.6078 0.6213 0.0000
vt 0.6283 0.6213 0.0000
vt 0.5196 0.9413 0.0000
vt 0.5071 0.9413 0.0000
vt 0.5238 0.6213 0.0000
vt 0.5443 0.6213 0.0000
vt 0.8396 0.6228 0.0000
vt 0.8337 0.9431 0.0000
vt 0.8214 0.9422 0.0000
vt 0.8192 0.6213 0.0000
vt 0.8141 0.6228 0.0000
vt 0.8085 0.9431 0.0000
vt 0.7961 0.9422 0.0000
vt 0.7937 0.6213 0.0000
vt 0.6661 0.5565 0.0000
vt 0.6537 0.5566 0.0000
vt 0.6536 0.5442 0.0000
vt 0.6661 0.5442 0.0000
vt 0.6456 0.5787 0.0000
vt 0.6457 0.5582 0.0000
vt 0.6661 0.5583 0.0000
vt 0.6661 0.5788 0.0000
vt 0.8956 0.6213 0.0000
vt 0.9161 0.6228 0.0000
vt 0.9101 0.9431 0.0000
vt 0.8979 0.9422 0.0000
vt 0.7427 0.6213 0.0000
vt 0.7632 0.6228 0.0000
vt 0.7576 0.9431 0.0000
vt 0.7452 0.9422 0.0000
vt 0.6917 0.6213 0.0000
vt 0.7122 0.6213 0.0000
vt 0.6876 0.9413 0.0000
vt 0.6753 0.9413 0.0000
vt 0.4392 0.6213 0.0000
vt 0.4597 0.6213 0.0000
vt 0.4349 0.9413 0.0000
vt 0.4224 0.9413 0.0000
vt 0.6217 0.6010 0.0000
vt 0.6093 0.6010 0.0000
vt 0.6092 0.5887 0.0000
vt 0.6217 0.5886 0.0000
vt 0.6661 0.5805 0.0000
vt 0.6661 0.6010 0.0000
vt 0.6456 0.6009 0.0000
vt 0.6457 0.5805 0.0000
vt 0.5863 0.6213 0.0000
vt 0.5494 0.9413 0.0000
vt 0.5658 0.6213 0.0000
vt 0.5617 0.9413 0.0000
vt 0.5020 0.6213 0.0000
vt 0.4648 0.9413 0.0000
vt 0.4815 0.6213 0.0000
vt 0.4773 0.9413 0.0000
vt 0.8651 0.6228 0.0000
vt 0.8469 0.9422 0.0000
vt 0.8447 0.6213 0.0000
vt 0.8592 0.9431 0.0000
vt 0.7887 0.6228 0.0000
vt 0.7706 0.9422 0.0000
vt 0.7682 0.6213 0.0000
vt 0.7831 0.9431 0.0000
vt 0.6093 0.5788 0.0000
vt 0.6217 0.5664 0.0000
vt 0.6217 0.5788 0.0000
vt 0.6092 0.5665 0.0000
vt 0.6234 0.5805 0.0000
vt 0.6439 0.6010 0.0000
vt 0.6234 0.6009 0.0000
vt 0.6439 0.5805 0.0000
vt 0.0044 0.7560 0.0000
vt 0.0025 0.3819 0.0000
vt 0.3743 0.3807 0.0000
vt 0.3763 0.7555 0.0000
vt 0.3743 0.3773 0.0000
vt 0.0025 0.3768 0.0000
vt 0.0044 0.0020 0.0000
vt 0.3763 0.0032 0.0000
vt 0.9736 0.9936 0.0000
vt 0.9736 0.6218 0.0000
vt 0.9793 0.6218 0.0000
vt 0.9793 0.9936 0.0000
vt 0.9922 0.9955 0.0000
vt 0.9922 0.6213 0.0000
vt 0.9980 0.6213 0.0000
vt 0.9980 0.9955 0.0000
vt 0.9636 0.9936 0.0000
vt 0.9636 0.6218 0.0000
vt 0.9693 0.6218 0.0000
vt 0.9693 0.9936 0.0000
vt 0.9831 0.9962 0.0000
vt 0.9831 0.6213 0.0000
vt 0.9889 0.6213 0.0000
vt 0.9889 0.9962 0.0000
vt 0.6617 0.2907 0.0000
vt 0.6617 0.2913 0.0000
vt 0.6612 0.2910 0.0000
vt 0.6656 0.5423 0.0000
vt 0.6661 0.5419 0.0000
vt 0.6661 0.5426 0.0000
vt 0.6639 0.2907 0.0000
vt 0.6639 0.2913 0.0000
vt 0.6634 0.2910 0.0000
vt 0.6212 0.5866 0.0000
vt 0.6217 0.5863 0.0000
vt 0.6217 0.5870 0.0000
vt 0.6656 0.2884 0.0000
vt 0.6661 0.2887 0.0000
vt 0.6656 0.2890 0.0000
vt 0.6070 0.6004 0.0000
vt 0.6076 0.6007 0.0000
vt 0.6070 0.6010 0.0000
vt 0.6514 0.5559 0.0000
vt 0.6520 0.5563 0.0000
vt 0.6514 0.5566 0.0000
vt 0.6656 0.2907 0.0000
vt 0.6661 0.2910 0.0000
vt 0.6656 0.2913 0.0000
vt 0.3747 0.3807 0.0000
vt 0.3767 0.7555 0.0000
vt 0.9698 0.9936 0.0000
vt 0.9698 0.6218 0.0000
vt 0.0040 0.7560 0.0000
vt 0.0020 0.3819 0.0000
vt 0.9798 0.9936 0.0000
vt 0.9798 0.6218 0.0000
vt 0.9731 0.6218 0.0000
vt 0.9731 0.9936 0.0000
vt 0.3767 0.0032 0.0000
vt 0.3747 0.3773 0.0000
vt 0.9631 0.6218 0.0000
vt 0.9631 0.9936 0.0000
vt 0.0020 0.3768 0.0000
vt 0.0040 0.0020 0.0000
vt 0.9793 0.9941 0.0000
vt 0.9736 0.9941 0.0000
vt 0.9736 0.6213 0.0000
vt 0.9793 0.6213 0.0000
vt 0.9693 0.6213 0.0000
vt 0.9636 0.6213 0.0000
vt 0.9693 0.9941 0.0000
vt 0.9636 0.9941 0.0000
# 216 texture coords

o solid
g solid
usemtl solid_wire
s 1
f 1/1/1 2/2/1 3/3/1 
f 1/1/1 3/3/1 4/4/2 
s 2
f 2/5/3 5/6/4 6/7/4 
f 2/5/3 6/7/4 3/8/3 
s 1
f 5/9/5 7/10/5 8/11/5 
f 5/9/5 8/11/5 6/12/5 
s 2
f 7/13/6 1/14/7 4/15/6 
f 7/13/6 4/15/6 8/16/6 
s 1
f 9/17/8 10/18/8 11/19/8 
f 9/17/8 11/19/8 12/20/8 
s 2
f 10/21/6 13/22/6 14/23/6 
f 10/21/6 14/23/6 11/24/7 
s 1
f 13/25/9 15/26/9 16/27/9 
f 13/25/9 16/27/9 14/28/9 
s 2
f 15/29/3 9/30/3 12/31/3 
f 15/29/3 12/31/3 16/32/3 
s 4
f 15/33/10 1/34/11 9/35/12 
f 7/36/10 9/35/12 1/34/11 
f 5/37/10 9/35/12 7/36/10 
f 5/37/10 10/38/10 9/35/12 
f 2/39/11 10/38/10 5/37/10 
f 2/39/11 13/40/11 10/38/10 
f 1/34/11 13/40/11 2/39/11 
f 1/34/11 15/33/10 13/40/11 
f 16/41/13 12/42/14 4/43/14 
f 8/44/14 4/43/14 12/42/14 
f 6/45/15 8/44/14 12/42/14 
f 6/45/15 12/42/14 11/46/16 
f 3/47/14 6/45/15 11/46/16 
f 3/47/14 11/46/16 14/48/14 
f 4/43/14 3/47/14 14/48/14 
f 4/43/14 14/48/14 16/41/13 
s 1
f 17/49/17 18/50/17 19/51/17 
f 19/51/17 20/52/17 17/49/17 
s 2
f 20/53/18 19/54/18 21/55/18 
f 21/55/18 22/56/18 20/53/18 
s 1
f 23/57/19 22/58/19 21/59/19 
f 21/59/19 24/60/19 23/57/19 
s 2
f 17/61/20 23/62/20 24/63/20 
f 24/63/20 18/64/20 17/61/20 
s 4
f 19/65/10 18/66/10 24/67/10 
f 24/67/10 21/68/10 19/65/10 
f 20/69/15 22/70/15 23/71/15 
f 23/71/15 17/72/15 20/69/15 
s 1
f 25/73/21 26/74/21 27/75/21 
f 27/75/21 28/76/21 25/73/21 
s 2
f 29/77/18 25/78/18 28/79/18 
f 28/79/18 30/80/18 29/77/18 
s 1
f 31/81/22 32/82/22 29/83/22 
f 29/83/22 30/84/22 31/81/22 
s 2
f 27/85/20 26/86/20 32/87/20 
f 32/87/20 31/88/20 27/85/20 
s 4
f 32/89/11 26/90/11 25/91/11 
f 25/91/11 29/92/11 32/89/11 
f 31/93/15 30/94/15 28/95/15 
f 28/95/15 27/96/15 31/93/15 
s 1
f 33/97/21 34/98/21 35/99/21 
f 35/99/21 36/100/21 33/97/21 
s 2
f 37/101/23 33/102/23 36/103/23 
f 36/103/23 38/104/23 37/101/23 
s 1
f 39/105/22 37/106/22 38/107/22 
f 38/107/22 40/108/22 39/105/22 
s 2
f 34/109/24 39/110/24 40/111/24 
f 40/111/24 35/112/24 34/109/24 
s 4
f 38/113/10 36/114/10 35/115/10 
f 35/115/10 40/116/10 38/113/10 
f 34/117/13 33/118/13 37/119/13 
f 37/119/13 39/120/13 34/117/13 
s 1
f 41/121/17 42/122/17 43/123/17 
f 42/122/17 41/121/17 44/124/17 
s 2
f 45/125/23 44/126/23 41/127/23 
f 44/126/23 45/125/23 46/128/23 
s 1
f 47/129/19 46/130/19 45/131/19 
f 46/130/19 47/129/19 48/132/19 
s 2
f 43/133/24 48/134/24 47/135/24 
f 48/134/24 43/133/24 42/136/24 
s 4
f 46/137/10 42/138/10 44/139/10 
f 42/138/10 46/137/10 48/140/10 
f 43/141/14 45/142/14 41/143/15 
f 45/142/14 43/141/14 47/144/16 
s 1
f 49/145/10 50/146/10 51/147/10 
f 51/147/10 52/148/10 49/145/10 
f 53/149/14 54/150/14 55/151/14 
f 55/151/14 56/152/16 53/149/14 
f 57/153/25 58/154/25 59/155/25 
f 59/155/25 60/156/25 57/153/25 
f 61/157/26 62/158/26 63/159/26 
f 63/159/26 64/160/26 61/157/26 
f 65/161/7 66/162/7 67/163/7 
f 67/163/7 68/164/7 65/161/7 
f 69/165/27 70/166/27 71/167/27 
f 71/167/27 72/168/27 69/165/27 
s 2
f 59/169/28 72/170/28 51/171/28 
f 50/172/29 63/173/29 60/174/29 
f 71/175/30 68/176/30 52/177/30 
f 49/178/31 67/179/31 64/180/31 
f 58/181/32 55/182/32 69/183/32 
f 62/184/33 56/185/33 57/186/33 
f 70/187/34 54/188/34 65/189/34 
f 66/190/35 53/191/35 61/192/35 
s 4
f 51/147/36 72/193/36 71/194/37 
f 71/194/37 52/148/37 51/147/36 
s 8
f 52/195/38 68/164/38 67/163/39 
f 67/163/39 49/196/39 52/195/38 
s 4
f 49/145/40 64/197/40 63/198/41 
f 63/198/41 50/146/41 49/145/40 
s 8
f 50/199/42 60/156/42 59/155/43 
f 59/155/43 51/200/43 50/199/42 
s 4
f 55/201/44 58/154/44 57/153/45 
f 57/153/45 56/202/45 55/201/44 
s 8
f 56/152/46 62/203/46 61/204/46 
f 61/204/46 53/149/46 56/152/46 
s 4
f 53/205/47 66/162/47 65/161/48 
f 65/161/48 54/206/48 53/205/47 
s 8
f 54/150/49 70/207/49 69/208/50 
f 69/208/50 55/151/50 54/150/49 
s 16
f 60/156/51 63/209/51 62/210/52 
f 62/210/52 57/153/52 60/156/51 
f 58/154/53 69/211/53 72/212/54 
f 72/212/54 59/155/54 58/154/53 
f 64/213/55 67/163/55 66/162/56 
f 66/162/56 61/214/56 64/213/55 
f 68/164/57 71/215/57 70/216/58 
f 70/216/58 65/161/59 68/164/57 
# 124 faces

#
